{"title":"Tamanche Pe Disco-RDB Feat Nindy Kaur and Raftaar - Bullett Raja","uid":9096727,"size":70154251,"categoryP":"video","categoryS":"music_videos","magnet":"?xt=urn:btih:5668fbb34b702b2c24cddbccdd232f81bc5a6b2e&amp;dn=Tamanche+Pe+Disco-RDB+Feat+Nindy+Kaur+and+Raftaar+-+Bullett+Raja&amp;tr=udp%3A%2F%2Ftracker.openbittorrent.com%3A80&amp;tr=udp%3A%2F%2Fopen.demonii.com%3A1337&amp;tr=udp%3A%2F%2Ftracker.coppersurfer.tk%3A6969&amp;tr=udp%3A%2F%2Fexodus.desync.com%3A6969","seeders":1,"leechers":1,"uploader":"ashish.p","files":1,"time":1382701121,"description":"Get ready to groove on the tunes of TAMANCHE PE DISCO from movie Bullett Raja starring Saif Ali Khan, Sonakshi Sinha, Jimmy Shergill, Vidyut Jamwal and Others. The music is composed by RDB while lyrics are penned by Raftaar\n\nSong: TAMANCHE PE DISCO\nSinger: RDB FEATURING, NINDY KAUR, RAFTAAR\nLyrics: RAFTAAR\nMusic: RDB\nMusic Label: T-SERIES\n\nEnjoy and stay connected with us!! \n\n\n\nGeneral\nComplete name : Tamanche Pe Disco-RDB Feat Nindy Kaur and Raftaar - Bullett Raja HD 1080p -AshishRocks-\nFormat : MPEG-4\nFormat profile : Base Media / Version 2\nCodec ID : mp42\nFile size : 66.9 MiB\nDuration : 2mn 9s\nOverall bit rate mode : Variable\nOverall bit rate : 4 346 Kbps\nEncoded date : UTC 2013-10-18 05:38:20\nTagged date : UTC 2013-10-18 05:38:20\nVideo #1\nID : 1\nFormat : AVC\nFormat/Info : Advanced Video Codec\nFormat profile : &lt;a class=&quot;__cf_email__&quot; href=&quot;/cdn-cgi/l/email-protection&quot; data-cfemail=&quot;561e3f313e161a627866&quot;&gt;[email&amp;#160;protected]&lt;/a&gt;&lt;script cf-hash='f9e31' type=&quot;text/javascript&quot;&gt;\n/* &lt;![CDATA[ */!function(){try{var t=&quot;currentScript&quot;in document?document.currentScript:function(){for(var t=document.getElementsByTagName(&quot;script&quot;),e=t.length;e--;)if(t[e].getAttribute(&quot;cf-hash&quot;))return t[e]}();if(t&amp;&amp;t.previousSibling){var e,r,n,i,c=t.previousSibling,a=c.getAttribute(&quot;data-cfemail&quot;);if(a){for(e=&quot;&quot;,r=parseInt(a.substr(0,2),16),n=2;a.length-n;n+=2)i=parseInt(a.substr(n,2),16)^r,e+=String.fromCharCode(i);e=document.createTextNode(e),c.parentNode.replaceChild(e,c)}}}catch(u){}}();/* ]]&gt; */&lt;/script&gt;\nFormat settings, CABAC : Yes\nFormat settings, ReFrames : 2 frames\nCodec ID : avc1\nCodec ID/Info : Advanced Video Coding\nDuration : 2mn 9s\nBit rate : 4 093 Kbps\nWidth : 1 920 pixels\nHeight : 1 080 pixels\nDisplay aspect ratio : 16:9\nFrame rate mode : Constant\nFrame rate : 25.000 fps\nColor space : YUV\nChroma subsampling : 4:2:0\nBit depth : 8 bits\nScan type : Progressive\nBits/(Pixel*Frame) : 0.079\nStream size : 63.0 MiB (94%)\nEncoded date : UTC 2013-10-18 05:38:20\nTagged date : UTC 2013-10-18 05:38:20\nAudio #2\nID : 2\nFormat : AAC\nFormat/Info : Advanced Audio Codec\nFormat profile : LC\nCodec ID : 40\nDuration : 2mn 9s\nBit rate mode : Variable\nBit rate : 254 Kbps\nChannel(s) : 2 channels\nChannel positions : Front: L R\nSampling rate : 44.1 KHz\nCompression mode : Lossy\nStream size : 3.90 MiB (6%)\nEncoded date : UTC 2013-10-18 05:37:53\nTagged date : UTC 2013-10-18 05:37:53","torrent":{"xt":"urn:btih:5668fbb34b702b2c24cddbccdd232f81bc5a6b2e","amp;dn":"Tamanche+Pe+Disco-RDB+Feat+Nindy+Kaur+and+Raftaar+-+Bullett+Raja","amp;tr":["udp%3A%2F%2Ftracker.openbittorrent.com%3A80","udp%3A%2F%2Fopen.demonii.com%3A1337","udp%3A%2F%2Ftracker.coppersurfer.tk%3A6969","udp%3A%2F%2Fexodus.desync.com%3A6969"],"infoHash":"5668fbb34b702b2c24cddbccdd232f81bc5a6b2e","infoHashBuffer":{"type":"Buffer","data":[86,104,251,179,75,112,43,44,36,205,219,204,221,35,47,129,188,90,107,46]},"announce":[],"urlList":[]}}